<?xml version="1.0" encoding="utf-8"?>
<!-- Generator: Adobe Illustrator 18.0.0, SVG Export Plug-In . SVG Version: 6.00 Build 0)  -->
<!DOCTYPE svg PUBLIC "-//W3C//DTD SVG 1.1//EN" "http://www.w3.org/Graphics/SVG/1.1/DTD/svg11.dtd">
<svg version="1.1" id="Layer_1" xmlns="http://www.w3.org/2000/svg" xmlns:xlink="http://www.w3.org/1999/xlink" x="0px" y="0px"
	 viewBox="0 0 260 110" enable-background="new 0 0 260 110" xml:space="preserve">
<g>
	<path fill="#FFFFFF" d="M16.6,8.6c-3.9,0-7.1,3.2-7.1,7.1v78.8c0,3.9,3.2,7.1,7.1,7.1h78.8c3.9,0,7.1-3.2,7.1-7.1V15.6
		c0-3.9-3.2-7.1-7.1-7.1H16.6z"/>
	<g>
		<radialGradient id="SVGID_1_" cx="60.1631" cy="90.1799" r="29.0057" gradientUnits="userSpaceOnUse">
			<stop  offset="0" style="stop-color:#49A8DE"/>
			<stop  offset="1" style="stop-color:#006EB7"/>
		</radialGradient>
		<path fill="url(#SVGID_1_)" d="M16.6,101.4h78.8c3.9,0,7.1-3.2,7.1-7.1V83.3H9.5v11.1C9.5,98.3,12.7,101.4,16.6,101.4z"/>
	</g>
	<g>
		<linearGradient id="SVGID_2_" gradientUnits="userSpaceOnUse" x1="55.9791" y1="103.343" x2="55.9791" y2="6.6571">
			<stop  offset="0" style="stop-color:#575756"/>
			<stop  offset="1" style="stop-color:#C2C2C2"/>
		</linearGradient>
		<path fill="url(#SVGID_2_)" d="M95.4,103.3H16.6c-4.9,0-9-4-9-9V15.6c0-4.9,4-9,9-9h78.8c4.9,0,9,4,9,9v78.8
			C104.3,99.3,100.3,103.3,95.4,103.3z M16.6,8.6c-3.9,0-7.1,3.2-7.1,7.1v78.8c0,3.9,3.2,7.1,7.1,7.1h78.8c3.9,0,7.1-3.2,7.1-7.1
			V15.6c0-3.9-3.2-7.1-7.1-7.1H16.6z"/>
		<linearGradient id="SVGID_3_" gradientUnits="userSpaceOnUse" x1="7.5" y1="55" x2="104.4582" y2="55">
			<stop  offset="0" style="stop-color:#3C3C3B"/>
			<stop  offset="0.3375" style="stop-color:#B0B0AF"/>
			<stop  offset="0.7075" style="stop-color:#4A4A49"/>
			<stop  offset="1" style="stop-color:#666565"/>
		</linearGradient>
		<path fill="url(#SVGID_3_)" d="M95.4,103.5H16.6c-5,0-9.1-4.1-9.1-9.1V15.6c0-5,4.1-9.1,9.1-9.1h78.8c5,0,9.1,4.1,9.1,9.1v78.8
			C104.5,99.4,100.4,103.5,95.4,103.5z M16.6,6.8c-4.9,0-8.8,4-8.8,8.8v78.8c0,4.9,4,8.8,8.8,8.8h78.8c4.9,0,8.8-4,8.8-8.8V15.6
			c0-4.9-4-8.8-8.8-8.8H16.6z M95.4,101.6H16.6c-4,0-7.2-3.2-7.2-7.2V15.6c0-4,3.2-7.2,7.2-7.2h78.8c4,0,7.2,3.2,7.2,7.2v78.8
			C102.6,98.3,99.3,101.6,95.4,101.6z M16.6,8.7c-3.8,0-6.9,3.1-6.9,6.9v78.8c0,3.8,3.1,6.9,6.9,6.9h78.8c3.8,0,6.9-3.1,6.9-6.9
			V15.6c0-3.8-3.1-6.9-6.9-6.9H16.6z"/>
	</g>
	<g>
		<defs>
			<filter id="Adobe_OpacityMaskFilter" filterUnits="userSpaceOnUse" x="23.6" y="10.4" width="60.5" height="53.1">
				<feColorMatrix  type="matrix" values="1 0 0 0 0  0 1 0 0 0  0 0 1 0 0  0 0 0 1 0"/>
			</filter>
		</defs>
		<mask maskUnits="userSpaceOnUse" x="23.6" y="10.4" width="60.5" height="53.1" id="SVGID_4_">
			<g filter="url(#Adobe_OpacityMaskFilter)">
				<path fill="#FFFFFF" d="M35.9,55.7c5.4,0.7,12.9,0.1,20.4-2.3c9.3-3,17.4-2.3,22.3-1l3.3,6c-3.8-1.8-13.7-4-25.6-0.2
					c-11.9,3.8-23.6,3-27.2,0l27.2-45l20.9,36.4c-5-1.1-12.4-1.4-20.8,1.4c-5.8,1.9-11.5,2.6-16.3,2.6l3-4.9c4.1-0.2,8.7-1,13.3-2.5
					c4.4-1.4,8.6-2,12.3-2.1L56.1,22.3L35.9,55.7L35.9,55.7z"/>
			</g>
		</mask>
		<radialGradient id="SVGID_5_" cx="56.5669" cy="30.5681" r="28.4469" gradientUnits="userSpaceOnUse">
			<stop  offset="0" style="stop-color:#49A8DE"/>
			<stop  offset="1" style="stop-color:#006EB7"/>
		</radialGradient>
		<rect x="23.6" y="10.4" mask="url(#SVGID_4_)" fill="url(#SVGID_5_)" width="60.5" height="53.1"/>
		<path fill="#1D1D1B" d="M88.2,61.6c-2,0-3.6,1.6-3.6,3.6c0,2,1.6,3.6,3.6,3.6c2,0,3.6-1.6,3.6-3.6C91.8,63.2,90.2,61.6,88.2,61.6z
			 M88.2,68.1c-1.6,0-2.9-1.3-2.9-2.9c0-1.6,1.3-2.9,2.9-2.9c1.6,0,2.9,1.3,2.9,2.9C91.1,66.8,89.8,68.1,88.2,68.1z"/>
		<path fill="#1D1D1B" d="M89.1,66c-0.1-0.2-0.2-0.3-0.4-0.5c-0.1-0.1-0.2-0.1-0.3-0.2c0.3,0,0.6-0.2,0.7-0.3
			c0.2-0.2,0.2-0.4,0.2-0.6c0-0.2,0-0.4-0.1-0.5c-0.1-0.2-0.2-0.3-0.4-0.3c-0.2-0.1-0.4-0.1-0.7-0.1h-1.6V67h0.5v-1.6h0.5
			c0.1,0,0.2,0,0.3,0c0.1,0,0.1,0,0.2,0.1c0.1,0,0.1,0.1,0.2,0.2c0.1,0.1,0.2,0.3,0.3,0.5l0.5,0.7h0.6L89.1,66z M88.1,65h-1v-1.2
			h1.1c0.3,0,0.5,0.1,0.6,0.2c0.1,0.1,0.2,0.2,0.2,0.4c0,0.1,0,0.2-0.1,0.3c-0.1,0.1-0.2,0.2-0.3,0.2C88.5,65,88.3,65,88.1,65z"/>
		<path fill="#1D1D1B" d="M30.3,75.1c0,2.2-1.3,3.1-3.4,3.1c-0.8,0-1.9-0.2-2.6-1c-0.5-0.5-0.6-1.2-0.6-2v-5.5h1.8v5.4
			c0,1.2,0.7,1.7,1.5,1.7c1.2,0,1.7-0.6,1.7-1.6v-5.5h1.8V75.1L30.3,75.1z"/>
		<polygon fill="#1D1D1B" points="37.5,69.7 39.3,69.7 36.5,78 34.9,78 32.1,69.7 33.9,69.7 35.7,76 37.5,69.7 		"/>
		<path fill="#1D1D1B" d="M50.1,76.1c0-1.5-0.4-1.8-1.1-2.1c0.8-0.3,1.3-1.1,1.3-2c0-0.7-0.4-2.3-2.6-2.3h-4.2V78h1.7v-3.2H47
			c1.3,0,1.4,0.4,1.4,1.6c0,0.9,0.1,1.3,0.2,1.7h1.9v-0.2C50.1,77.6,50.1,77.3,50.1,76.1z M47.2,73.4h-2v-2.2h2.2
			c1,0,1.2,0.6,1.2,1.1C48.6,73,48.1,73.4,47.2,73.4z"/>
		<path fill="#1D1D1B" d="M57,78h-1.6v-3.7c0-0.5,0-1.2-1.1-1.2c-0.7,0-1.3,0.5-1.3,1.4V78h-1.6v-8.3H53v2.9c0.2-0.5,0.9-1,1.8-1
			c1.2,0,2.1,0.7,2.1,2.1V78L57,78z"/>
		<path fill="#1D1D1B" d="M63.8,75.1c0-2.8-1.7-3.4-2.9-3.4c-2.7,0-2.9,2.4-2.9,3.1c0,2.5,1.3,3.4,3.1,3.4c1.1,0,2.3-0.5,2.7-2h-1.7
			c-0.1,0.4-0.6,0.7-1,0.7c-1.3,0-1.4-1-1.4-1.5h4.2V75.1z M59.6,74.3c0.1-0.8,0.5-1.3,1.3-1.3c0.5,0,1.2,0.3,1.2,1.3H59.6z"/>
		<polygon fill="#1D1D1B" points="66.4,71.8 66.4,78 64.8,78 64.8,71.8 66.4,71.8 		"/>
		<polygon fill="#1D1D1B" points="66.4,71.1 64.8,71.1 64.8,69.6 66.4,69.6 66.4,71.1 		"/>
		<path fill="#1D1D1B" d="M73.2,78h-1.6v-3.7c0-0.5,0-1.2-1.1-1.2c-0.7,0-1.3,0.5-1.3,1.4V78h-1.6v-6.2h1.6v0.9
			c0.2-0.4,0.7-1.1,1.9-1.1c1.2,0,2.1,0.7,2.1,2.1V78L73.2,78z"/>
		<polygon fill="#1D1D1B" points="76.1,78 74.5,78 74.5,69.7 76.1,69.7 76.1,78 		"/>
		<path fill="#1D1D1B" d="M82.7,76.8v-3.3c0-1.5-1.6-1.8-2.5-1.8c-1.3,0-2.6,0.3-2.8,2.1h1.6c0-0.4,0.2-0.9,1-0.9
			c0.4,0,1.1,0,1.1,0.7c0,0.3-0.3,0.5-0.6,0.5l-1.5,0.2c-1,0.2-1.8,0.8-1.8,2c0,1.3,0.9,1.8,1.9,1.8c1.1,0,1.6-0.5,2-0.9
			c0,0.3,0.1,0.4,0.2,0.7h1.7v-0.2C82.9,77.7,82.7,77.5,82.7,76.8z M81.2,75.8c0,0.8-0.7,1.2-1.4,1.2c-0.3,0-0.8-0.2-0.8-0.7
			c0-0.7,0.5-0.8,1.1-0.9c0.7-0.1,0.9-0.2,1.1-0.3V75.8z"/>
		<path fill="#1D1D1B" d="M89.6,78H88v-3.7c0-0.5,0-1.2-1.1-1.2c-0.7,0-1.3,0.5-1.3,1.4V78h-1.6v-6.2h1.5v0.9
			c0.2-0.4,0.7-1.1,1.9-1.1c1.2,0,2.1,0.7,2.1,2.1V78L89.6,78z"/>
		<path fill="#1D1D1B" d="M94.8,69.7l0,2.9c-0.3-0.4-0.7-1-1.8-1c-1.4,0-2.6,1-2.6,3.2c0,1.7,0.8,3.3,2.6,3.3c0.7,0,1.4-0.2,1.8-0.9
			V78h1.6v-8.3H94.8z M93.4,76.8c-1,0-1.3-1.1-1.3-1.9c0-1,0.3-1.9,1.4-1.9c1.1,0,1.4,1,1.4,2C94.9,76,94.5,76.8,93.4,76.8z"/>
		<path fill="#1D1D1B" d="M24.5,67.6c-0.6,0-1.1-0.5-1.1-1.1c0-0.6,0.5-1.1,1.1-1.1c0.6,0,1.1,0.5,1.1,1.1
			C25.6,67.1,25.1,67.6,24.5,67.6L24.5,67.6z"/>
		<path fill="#1D1D1B" d="M29,67.6c-0.6,0-1.1-0.5-1.1-1.1c0-0.6,0.5-1.1,1.1-1.1c0.6,0,1.1,0.5,1.1,1.1
			C30.1,67.1,29.6,67.6,29,67.6L29,67.6z"/>
		<polygon fill="#1D1D1B" points="19.5,78 17.8,78 17.8,71.2 15.3,71.2 15.3,69.7 22,69.7 22,71.2 19.5,71.2 19.5,78 		"/>
		<linearGradient id="SVGID_6_" gradientUnits="userSpaceOnUse" x1="29.005" y1="37.0161" x2="81.8317" y2="37.0161">
			<stop  offset="0" style="stop-color:#003351"/>
			<stop  offset="1" style="stop-color:#006EB7"/>
		</linearGradient>
		<path fill="url(#SVGID_6_)" d="M56.2,13.6l20.5,35.7c-2.3-0.5-4.7-0.7-7.2-0.7c-4.4,0-8.9,0.7-13.3,2.1C49.6,53,44,53.4,40.5,53.4
			c0,0-0.1,0-0.1,0l2.8-4.5c4.4-0.3,8.9-1.1,13.2-2.5c4-1.3,8.1-2,12.2-2.1l0.3,0L68.7,44L56.3,22.2l-0.2-0.3l-0.2,0.3L35.7,55.6
			l-0.2,0.3l0.3,0c1.4,0.2,3,0.3,4.6,0.3c3.6,0,9.3-0.4,15.9-2.6c4.3-1.4,8.8-2.1,13.2-2.1c4,0,7.1,0.6,9,1.1l2.9,5.4
			c-2.5-1-6.7-2.1-11.9-2.1c-4.4,0-8.9,0.7-13.3,2.1c-6.6,2.1-12.2,2.6-15.7,2.6c-5,0-9.2-0.9-11.2-2.4L56.2,13.6 M56.2,13.2
			L29,58.2c1.9,1.6,6.2,2.6,11.4,2.6c4.7,0,10.2-0.8,15.8-2.6c4.8-1.6,9.3-2.1,13.2-2.1c5.7,0,10.1,1.2,12.4,2.3l-3.3-6
			c-2.4-0.6-5.5-1.1-9.1-1.1c-3.9,0-8.4,0.6-13.2,2.1c-5.6,1.8-11.1,2.6-15.8,2.6c-1.6,0-3.2-0.1-4.6-0.3l20.2-33.4l12.5,21.8
			c-3.7,0.1-7.8,0.7-12.3,2.1c-4.6,1.5-9.2,2.3-13.3,2.5l-3,4.9c0.2,0,0.3,0,0.5,0c4.7,0,10.2-0.8,15.8-2.6
			c4.8-1.6,9.3-2.1,13.2-2.1c2.9,0,5.5,0.3,7.6,0.8L56.2,13.2L56.2,13.2z"/>
	</g>
	<g>
		<path fill="#FFFFFF" d="M30.3,94c0.8,0,1.4-0.3,1.9-0.9l1,1c-0.8,0.9-1.7,1.4-2.8,1.4c-1.1,0-2-0.3-2.7-1
			c-0.7-0.7-1.1-1.6-1.1-2.6c0-1,0.4-1.9,1.1-2.6c0.7-0.7,1.6-1,2.6-1c1.2,0,2.1,0.4,2.9,1.3l-1,1.1c-0.5-0.6-1.1-0.9-1.9-0.9
			c-0.6,0-1.1,0.2-1.5,0.6c-0.4,0.4-0.6,0.9-0.6,1.6c0,0.7,0.2,1.2,0.6,1.6C29.3,93.8,29.7,94,30.3,94z"/>
		<path fill="#FFFFFF" d="M40,88.3v1.4h-3.5v1.5h3.2v1.3h-3.2V94h3.6v1.4H35v-7H40z"/>
		<path fill="#FFFFFF" d="M47.8,90.7c0,1.1-0.4,1.9-1.3,2.2l1.8,2.5h-1.9l-1.6-2.2h-1.1v2.2H42v-7h2.7c1.1,0,1.9,0.2,2.3,0.6
			C47.5,89.3,47.8,89.9,47.8,90.7z M45.9,91.5c0.2-0.2,0.3-0.5,0.3-0.8c0-0.4-0.1-0.6-0.3-0.8s-0.6-0.2-1.1-0.2h-1.2v2.1h1.1
			C45.3,91.8,45.7,91.7,45.9,91.5z"/>
		<path fill="#FFFFFF" d="M52.7,89.7v5.7h-1.6v-5.7h-2v-1.4h5.6v1.4H52.7z"/>
		<path fill="#FFFFFF" d="M56.4,88.3h1.6v7h-1.6V88.3z"/>
		<path fill="#FFFFFF" d="M65,88.3v1.4h-3.3v1.5h3.1v1.4h-3.1v2.8h-1.6v-7H65z"/>
		<path fill="#FFFFFF" d="M66.8,88.3h1.6v7h-1.6V88.3z"/>
		<path fill="#FFFFFF" d="M75.7,88.3v1.4h-3.5v1.5h3.2v1.3h-3.2V94h3.6v1.4h-5.2v-7H75.7z"/>
		<path fill="#FFFFFF" d="M83.1,89.3c0.7,0.6,1,1.5,1,2.6c0,1.1-0.3,2-1,2.6c-0.7,0.6-1.7,1-3,1h-2.4v-7h2.5
			C81.5,88.3,82.5,88.6,83.1,89.3z M82,93.4c0.4-0.4,0.6-0.9,0.6-1.6c0-0.7-0.2-1.2-0.6-1.6c-0.4-0.4-1-0.6-1.8-0.6h-0.9V94h1
			C81,94,81.6,93.8,82,93.4z"/>
	</g>
	<g>
		<path fill="#1D1D1B" d="M123.7,20.1l-2.4,4.9h-1.2l-2.4-4.9v5.7h-2v-9h2.7l2.3,5l2.3-5h2.7v9h-2V20.1z"/>
		<path fill="#1D1D1B" d="M133.7,25.8h-1.8v-0.8c-0.5,0.6-1.1,0.9-1.9,0.9c-0.7,0-1.4-0.2-1.9-0.6c-0.5-0.4-0.7-1-0.7-1.7
			c0-0.7,0.3-1.2,0.8-1.6c0.5-0.4,1.2-0.5,2.1-0.5h1.4v0c0-0.7-0.4-1.1-1.2-1.1c-0.3,0-0.7,0.1-1.1,0.2c-0.4,0.1-0.7,0.3-0.9,0.5
			l-0.9-1.3c0.9-0.7,2-1,3.1-1c0.8,0,1.5,0.2,2.1,0.6c0.5,0.4,0.8,1.1,0.8,2V25.8z M131.7,23.1v-0.3h-1.2c-0.8,0-1.2,0.2-1.2,0.7
			c0,0.2,0.1,0.4,0.3,0.6c0.2,0.1,0.4,0.2,0.8,0.2c0.3,0,0.6-0.1,0.9-0.3C131.6,23.7,131.7,23.5,131.7,23.1z"/>
		<path fill="#1D1D1B" d="M137.4,21.9v3.9h-1.9v-6.9h1.9v0.8c0.6-0.6,1.2-0.9,2-0.9s1.3,0.3,1.8,0.8c0.5,0.5,0.7,1.2,0.7,2.1v4.2
			H140v-3.9c0-1.1-0.4-1.6-1.2-1.6c-0.4,0-0.7,0.1-1,0.4C137.5,20.9,137.4,21.3,137.4,21.9z"/>
		<path fill="#1D1D1B" d="M149.6,25.8h-1.8v-0.8c-0.5,0.6-1.1,0.9-1.9,0.9c-0.7,0-1.4-0.2-1.9-0.6c-0.5-0.4-0.7-1-0.7-1.7
			c0-0.7,0.3-1.2,0.8-1.6c0.5-0.4,1.2-0.5,2.1-0.5h1.4v0c0-0.7-0.4-1.1-1.2-1.1c-0.3,0-0.7,0.1-1.1,0.2c-0.4,0.1-0.7,0.3-0.9,0.5
			l-0.9-1.3c0.9-0.7,2-1,3.1-1c0.8,0,1.5,0.2,2.1,0.6c0.5,0.4,0.8,1.1,0.8,2V25.8z M147.6,23.1v-0.3h-1.2c-0.8,0-1.2,0.2-1.2,0.7
			c0,0.2,0.1,0.4,0.3,0.6c0.2,0.1,0.4,0.2,0.8,0.2c0.3,0,0.6-0.1,0.9-0.3C147.5,23.7,147.6,23.5,147.6,23.1z"/>
		<path fill="#1D1D1B" d="M156.4,24.6c-0.6,0.7-1.4,1-2.3,1c-0.9,0-1.7-0.3-2.3-0.9c-0.6-0.6-0.9-1.4-0.9-2.5c0-1,0.3-1.9,1-2.5
			c0.6-0.7,1.4-1,2.2-1s1.5,0.3,2.1,1v-0.9h1.9v6c0,0.6-0.1,1.2-0.3,1.7c-0.2,0.5-0.5,0.9-0.9,1.1c-0.7,0.6-1.6,0.9-2.5,0.9
			c-0.5,0-1-0.1-1.6-0.3c-0.5-0.2-1-0.4-1.4-0.7l0.7-1.5c0.6,0.5,1.3,0.7,2,0.7s1.3-0.2,1.7-0.5C156.2,25.9,156.4,25.3,156.4,24.6z
			 M156.2,22.1c0-0.6-0.2-1-0.5-1.3c-0.3-0.3-0.7-0.5-1.1-0.5c-0.5,0-0.8,0.2-1.2,0.5c-0.3,0.3-0.5,0.8-0.5,1.3c0,0.6,0.2,1,0.5,1.3
			c0.3,0.3,0.7,0.5,1.2,0.5c0.5,0,0.9-0.2,1.2-0.5C156,23.1,156.2,22.7,156.2,22.1z"/>
		<path fill="#1D1D1B" d="M165.9,24.8c-0.8,0.7-1.7,1.1-2.8,1.1s-1.9-0.3-2.6-1c-0.7-0.6-1-1.5-1-2.6c0-1.1,0.4-2,1.1-2.6
			c0.7-0.6,1.5-1,2.5-1c1,0,1.8,0.3,2.4,0.9c0.7,0.6,1,1.4,1,2.4v1h-5.1c0.1,0.4,0.3,0.7,0.6,0.9c0.3,0.2,0.7,0.4,1.1,0.4
			c0.7,0,1.2-0.2,1.7-0.7L165.9,24.8z M164.1,20.6c-0.3-0.2-0.6-0.3-1-0.3c-0.4,0-0.7,0.1-1.1,0.3c-0.3,0.2-0.5,0.5-0.6,0.9h3
			C164.5,21.2,164.3,20.9,164.1,20.6z"/>
		<path fill="#1D1D1B" d="M174.3,22v3.7h-1.9V22c0-0.5-0.1-1-0.3-1.2c-0.2-0.3-0.4-0.4-0.8-0.4c-0.4,0-0.7,0.1-1,0.4
			c-0.3,0.3-0.4,0.7-0.4,1.2v3.7h-1.9v-6.9h1.9v0.8c0.5-0.6,1.1-0.9,1.8-0.9c0.4,0,0.8,0.1,1.2,0.4c0.4,0.3,0.6,0.6,0.8,0.9
			c0.3-0.4,0.6-0.7,1.1-1c0.5-0.2,0.9-0.3,1.4-0.3c0.8,0,1.5,0.2,2,0.7c0.5,0.5,0.7,1.2,0.7,2.1v4.2h-1.9V22c0-1.1-0.4-1.6-1.2-1.6
			c-0.4,0-0.7,0.1-1,0.4C174.4,21.1,174.3,21.5,174.3,22z"/>
		<path fill="#1D1D1B" d="M186.6,24.8c-0.8,0.7-1.7,1.1-2.8,1.1s-1.9-0.3-2.6-1c-0.7-0.6-1-1.5-1-2.6c0-1.1,0.4-2,1.1-2.6
			c0.7-0.6,1.5-1,2.5-1c1,0,1.8,0.3,2.4,0.9c0.7,0.6,1,1.4,1,2.4v1h-5.1c0.1,0.4,0.3,0.7,0.6,0.9c0.3,0.2,0.7,0.4,1.1,0.4
			c0.7,0,1.2-0.2,1.7-0.7L186.6,24.8z M184.7,20.6c-0.3-0.2-0.6-0.3-1-0.3c-0.4,0-0.7,0.1-1.1,0.3c-0.3,0.2-0.5,0.5-0.6,0.9h3
			C185.1,21.2,185,20.9,184.7,20.6z"/>
		<path fill="#1D1D1B" d="M190.5,21.9v3.9h-1.9v-6.9h1.9v0.8c0.6-0.6,1.2-0.9,2-0.9s1.3,0.3,1.8,0.8c0.5,0.5,0.7,1.2,0.7,2.1v4.2
			h-1.9v-3.9c0-1.1-0.4-1.6-1.2-1.6c-0.4,0-0.7,0.1-1,0.4C190.6,20.9,190.5,21.3,190.5,21.9z"/>
		<path fill="#1D1D1B" d="M199,20.2v3.1c0,0.3,0.1,0.5,0.2,0.6c0.1,0.2,0.3,0.2,0.5,0.2c0.4,0,0.7-0.2,0.9-0.5l0.7,1.4
			c-0.6,0.6-1.2,0.8-1.9,0.8c-0.7,0-1.2-0.2-1.7-0.7c-0.5-0.4-0.7-1-0.7-1.8v-3.2h-0.8v-1.4h0.8v-2.1h1.9v2.1h1.7v1.4H199z"/>
		<path fill="#1D1D1B" d="M208,18.5c-0.2,0.2-0.3,0.4-0.3,0.6c0,0.3,0.1,0.5,0.4,0.6c0.2,0.2,0.8,0.3,1.6,0.5c0.9,0.2,1.5,0.5,2,0.9
			c0.5,0.4,0.7,1,0.7,1.8c0,0.8-0.3,1.5-0.9,2s-1.4,0.8-2.4,0.8c-1.4,0-2.7-0.5-3.9-1.6l1.2-1.5c1,0.9,1.9,1.3,2.7,1.3
			c0.4,0,0.7-0.1,0.9-0.2c0.2-0.2,0.3-0.4,0.3-0.6c0-0.3-0.1-0.5-0.3-0.6c-0.2-0.2-0.7-0.3-1.3-0.5c-1-0.2-1.8-0.6-2.3-1
			c-0.5-0.4-0.7-1-0.7-1.9c0-0.9,0.3-1.5,0.9-2c0.6-0.5,1.4-0.7,2.3-0.7c0.6,0,1.2,0.1,1.8,0.3c0.6,0.2,1.1,0.5,1.6,0.9l-1,1.5
			c-0.8-0.6-1.6-0.9-2.4-0.9C208.5,18.3,208.2,18.4,208,18.5z"/>
		<path fill="#1D1D1B" d="M215,28.5c-0.7,0-1.3-0.3-1.9-0.8l0.9-1.4c0.3,0.3,0.7,0.5,1,0.5c0.2,0,0.3-0.1,0.5-0.3
			c0.1-0.2,0.2-0.4,0.2-0.6c0-0.2-0.9-2.6-2.7-7.1h2.1l1.7,4.3l1.7-4.3h2.1l-3.2,8.2c-0.2,0.5-0.5,0.8-0.9,1.1
			C215.9,28.4,215.5,28.5,215,28.5z"/>
		<path fill="#1D1D1B" d="M226.5,23.6c0,0.7-0.3,1.2-0.8,1.6c-0.5,0.4-1.1,0.6-1.9,0.6c-0.5,0-1.1-0.1-1.6-0.3s-1.1-0.5-1.5-0.8
			l0.9-1.2c0.7,0.6,1.5,0.8,2.3,0.8c0.2,0,0.4,0,0.6-0.1c0.1-0.1,0.2-0.2,0.2-0.4c0-0.2-0.1-0.3-0.3-0.5c-0.2-0.1-0.5-0.3-0.9-0.4
			c-0.4-0.1-0.7-0.2-0.9-0.3c-0.2-0.1-0.4-0.2-0.7-0.4c-0.5-0.3-0.8-0.8-0.8-1.5c0-0.6,0.3-1.2,0.8-1.6s1.2-0.6,2-0.6
			c0.8,0,1.6,0.3,2.4,0.8l-0.7,1.3c-0.6-0.4-1.2-0.6-1.8-0.6s-0.9,0.2-0.9,0.5c0,0.2,0.1,0.3,0.3,0.4c0.2,0.1,0.5,0.2,0.9,0.4
			c0.4,0.1,0.7,0.2,0.9,0.3c0.2,0.1,0.4,0.2,0.7,0.3C226.3,22.4,226.5,22.9,226.5,23.6z"/>
		<path fill="#1D1D1B" d="M230.2,20.2v3.1c0,0.3,0.1,0.5,0.2,0.6c0.1,0.2,0.3,0.2,0.5,0.2c0.4,0,0.7-0.2,0.9-0.5l0.7,1.4
			c-0.6,0.6-1.2,0.8-1.9,0.8c-0.7,0-1.2-0.2-1.7-0.7c-0.5-0.4-0.7-1-0.7-1.8v-3.2h-0.8v-1.4h0.8v-2.1h1.9v2.1h1.7v1.4H230.2z"/>
		<path fill="#1D1D1B" d="M239.6,24.8c-0.8,0.7-1.7,1.1-2.8,1.1s-1.9-0.3-2.6-1c-0.7-0.6-1-1.5-1-2.6c0-1.1,0.4-2,1.1-2.6
			c0.7-0.6,1.5-1,2.5-1c1,0,1.8,0.3,2.4,0.9c0.7,0.6,1,1.4,1,2.4v1h-5.1c0.1,0.4,0.3,0.7,0.6,0.9c0.3,0.2,0.7,0.4,1.1,0.4
			c0.7,0,1.2-0.2,1.7-0.7L239.6,24.8z M237.8,20.6c-0.3-0.2-0.6-0.3-1-0.3c-0.4,0-0.7,0.1-1.1,0.3c-0.3,0.2-0.5,0.5-0.6,0.9h3
			C238.2,21.2,238,20.9,237.8,20.6z"/>
		<path fill="#1D1D1B" d="M247.9,22v3.7H246V22c0-0.5-0.1-1-0.3-1.2c-0.2-0.3-0.4-0.4-0.8-0.4c-0.4,0-0.7,0.1-1,0.4
			c-0.3,0.3-0.4,0.7-0.4,1.2v3.7h-1.9v-6.9h1.9v0.8c0.5-0.6,1.1-0.9,1.8-0.9c0.4,0,0.8,0.1,1.2,0.4c0.4,0.3,0.6,0.6,0.8,0.9
			c0.3-0.4,0.6-0.7,1.1-1c0.5-0.2,0.9-0.3,1.4-0.3c0.8,0,1.5,0.2,2,0.7c0.5,0.5,0.7,1.2,0.7,2.1v4.2h-1.9V22c0-1.1-0.4-1.6-1.2-1.6
			c-0.4,0-0.7,0.1-1,0.4C248.1,21.1,247.9,21.5,247.9,22z"/>
		<path fill="#1D1D1B" d="M116.9,33.8h4.2v18.8h-4.2V33.8z"/>
		<path fill="#1D1D1B" d="M130,37.6c-0.4,0.3-0.6,0.8-0.6,1.3c0,0.5,0.2,1,0.7,1.3c0.5,0.3,1.6,0.7,3.4,1.1c1.8,0.4,3.2,1.1,4.1,2
			c1,0.9,1.5,2.2,1.5,3.8c0,1.7-0.6,3-1.9,4.1c-1.3,1-2.9,1.6-5,1.6c-3,0-5.6-1.1-8-3.3l2.5-3.1c2,1.8,3.9,2.7,5.6,2.7
			c0.8,0,1.4-0.2,1.8-0.5c0.4-0.3,0.7-0.8,0.7-1.3c0-0.6-0.2-1-0.7-1.3c-0.5-0.3-1.4-0.7-2.8-1c-2.2-0.5-3.8-1.2-4.8-2
			c-1-0.8-1.5-2.1-1.5-3.9c0-1.8,0.6-3.2,1.9-4.1c1.3-1,2.9-1.4,4.8-1.4c1.3,0,2.5,0.2,3.8,0.6c1.3,0.4,2.3,1,3.3,1.8l-2.1,3.1
			c-1.6-1.2-3.3-1.9-5-1.9C131,37.1,130.4,37.2,130,37.6z"/>
		<path fill="#1D1D1B" d="M158.6,50c-1.9,1.9-4.2,2.8-7,2.8c-2.8,0-5.1-0.9-7-2.8c-1.9-1.9-2.8-4.2-2.8-6.9c0-2.8,0.9-5.1,2.8-6.9
			c1.9-1.9,4.2-2.8,7-2.8c2.8,0,5.1,0.9,7,2.8c1.9,1.9,2.8,4.2,2.8,6.9C161.4,45.8,160.4,48.1,158.6,50z M157.1,43.1
			c0-1.7-0.5-3.1-1.6-4.3c-1.1-1.2-2.4-1.8-4-1.8c-1.6,0-2.9,0.6-4,1.8c-1.1,1.2-1.6,2.6-1.6,4.3c0,1.7,0.5,3.1,1.6,4.3
			c1.1,1.2,2.4,1.8,4,1.8c1.6,0,2.9-0.6,4-1.8C156.6,46.2,157.1,44.8,157.1,43.1z"/>
		<path fill="#1D1D1B" d="M177.1,49.2c1.2,0,2.1-0.4,2.7-1.2c0.6-0.8,1-1.8,1.2-3.2c-1.1,0.8-2.4,1.2-3.7,1.2
			c-1.8,0-3.2-0.6-4.4-1.7c-1.2-1.2-1.8-2.7-1.8-4.6c0-1.9,0.6-3.4,1.9-4.6c1.3-1.2,2.8-1.7,4.8-1.7c1.3,0,2.5,0.3,3.4,0.8
			c1,0.5,1.7,1.2,2.3,2.1c1.1,1.8,1.6,4,1.6,6.7c0,1.7-0.2,3.2-0.6,4.5c-0.4,1.3-1,2.3-1.7,3.1c-1.5,1.5-3.2,2.3-5.3,2.3
			c-0.9,0-1.7-0.1-2.5-0.4c-0.8-0.3-1.4-0.5-1.8-0.8c-0.4-0.3-0.9-0.6-1.4-1l2.1-3c0.1,0.1,0.3,0.2,0.5,0.4c0.2,0.2,0.6,0.4,1.2,0.7
			C176,49.1,176.6,49.2,177.1,49.2z M177.7,42.4c0.8,0,1.5-0.2,2.1-0.7c0.6-0.5,0.8-1.1,0.8-1.9c0-0.8-0.3-1.5-0.8-2
			c-0.5-0.6-1.2-0.9-2-0.9c-0.8,0-1.5,0.3-2,0.8c-0.5,0.5-0.8,1.2-0.8,1.9c0,0.8,0.2,1.5,0.7,2C176.2,42.2,176.8,42.4,177.7,42.4z"
			/>
		<path fill="#1D1D1B" d="M195.8,52.8c-2.6,0-4.5-0.9-5.8-2.6c-1.3-1.8-1.9-4.1-1.9-7.1c0-2.9,0.6-5.3,1.9-7.1
			c1.3-1.8,3.2-2.6,5.8-2.6c2.6,0,4.5,0.9,5.8,2.6c1.3,1.8,1.9,4.1,1.9,7.1c0,2.9-0.6,5.3-1.9,7.1C200.4,51.9,198.4,52.8,195.8,52.8
			z M193.1,38.6c-0.6,1.1-0.9,2.7-0.9,4.5c0,1.9,0.3,3.4,0.9,4.5c0.6,1.1,1.5,1.7,2.8,1.7c1.3,0,2.2-0.6,2.8-1.7
			c0.6-1.1,0.9-2.7,0.9-4.5c0-1.9-0.3-3.4-0.9-4.5c-0.6-1.1-1.5-1.7-2.8-1.7C194.6,36.9,193.7,37.4,193.1,38.6z"/>
		<path fill="#1D1D1B" d="M214.4,52.8c-2.6,0-4.5-0.9-5.8-2.6c-1.3-1.8-1.9-4.1-1.9-7.1c0-2.9,0.6-5.3,1.9-7.1
			c1.3-1.8,3.2-2.6,5.8-2.6c2.6,0,4.5,0.9,5.8,2.6c1.3,1.8,1.9,4.1,1.9,7.1c0,2.9-0.6,5.3-1.9,7.1C218.9,51.9,217,52.8,214.4,52.8z
			 M211.6,38.6c-0.6,1.1-0.9,2.7-0.9,4.5c0,1.9,0.3,3.4,0.9,4.5c0.6,1.1,1.5,1.7,2.8,1.7c1.3,0,2.2-0.6,2.8-1.7
			c0.6-1.1,0.9-2.7,0.9-4.5c0-1.9-0.3-3.4-0.9-4.5c-0.6-1.1-1.5-1.7-2.8-1.7C213.1,36.9,212.2,37.4,211.6,38.6z"/>
		<path fill="#1D1D1B" d="M224.4,33.8h7.6v18.8h-4V37.4h-3.6V33.8z"/>
		<path fill="#1D1D1B" d="M115.7,61.7h2v9h-2V61.7z"/>
		<path fill="#1D1D1B" d="M126.8,62.9c0.9,0.8,1.3,1.9,1.3,3.3s-0.4,2.5-1.3,3.3c-0.8,0.8-2.1,1.2-3.8,1.2h-3.1v-9h3.2
			C124.7,61.7,125.9,62.1,126.8,62.9z M125.3,68.2c0.5-0.5,0.7-1.1,0.7-2c0-0.9-0.2-1.6-0.7-2c-0.5-0.5-1.3-0.7-2.3-0.7h-1.1v5.5
			h1.3C124.1,68.9,124.8,68.7,125.3,68.2z"/>
		<path fill="#1D1D1B" d="M129.9,67.1c-0.2-0.2-0.3-0.5-0.3-0.8c0-0.3,0.1-0.6,0.3-0.8c0.2-0.2,0.5-0.3,0.8-0.3
			c0.3,0,0.6,0.1,0.8,0.3c0.2,0.2,0.3,0.5,0.3,0.8c0,0.3-0.1,0.6-0.3,0.8c-0.2,0.2-0.5,0.3-0.8,0.3
			C130.4,67.4,130.1,67.3,129.9,67.1z M129.9,70.5c-0.2-0.2-0.3-0.5-0.3-0.8c0-0.3,0.1-0.6,0.3-0.8c0.2-0.2,0.5-0.3,0.8-0.3
			c0.3,0,0.6,0.1,0.8,0.3c0.2,0.2,0.3,0.5,0.3,0.8c0,0.3-0.1,0.6-0.3,0.8c-0.2,0.2-0.5,0.3-0.8,0.3
			C130.4,70.8,130.1,70.7,129.9,70.5z"/>
		<path fill="#1D1D1B" d="M139.6,69.1c0.6,0,1-0.2,1.3-0.6c0.3-0.4,0.5-0.9,0.6-1.5c-0.6,0.4-1.1,0.6-1.8,0.6
			c-0.8,0-1.5-0.3-2.1-0.8c-0.6-0.6-0.8-1.3-0.8-2.2c0-0.9,0.3-1.6,0.9-2.2c0.6-0.6,1.4-0.8,2.3-0.8c0.6,0,1.2,0.1,1.7,0.4
			c0.5,0.2,0.8,0.6,1.1,1c0.5,0.9,0.8,1.9,0.8,3.2c0,0.8-0.1,1.5-0.3,2.2c-0.2,0.6-0.5,1.1-0.8,1.5c-0.7,0.7-1.6,1.1-2.6,1.1
			c-0.4,0-0.8-0.1-1.2-0.2c-0.4-0.1-0.7-0.2-0.9-0.4c-0.2-0.1-0.4-0.3-0.7-0.5l1-1.4c0.1,0.1,0.1,0.1,0.2,0.2
			c0.1,0.1,0.3,0.2,0.6,0.3C139.1,69,139.4,69.1,139.6,69.1z M139.9,65.8c0.4,0,0.7-0.1,1-0.3c0.3-0.2,0.4-0.5,0.4-0.9
			c0-0.4-0.1-0.7-0.4-1c-0.3-0.3-0.6-0.4-1-0.4c-0.4,0-0.7,0.1-0.9,0.4c-0.2,0.2-0.4,0.6-0.4,0.9s0.1,0.7,0.3,1
			C139.2,65.7,139.5,65.8,139.9,65.8z"/>
		<path fill="#1D1D1B" d="M144.6,61.7h3.6v9h-1.9v-7.3h-1.7V61.7z"/>
		<path fill="#1D1D1B" d="M153.8,70.8c-1.2,0-2.2-0.4-2.8-1.3c-0.6-0.8-0.9-2-0.9-3.4c0-1.4,0.3-2.5,0.9-3.4
			c0.6-0.8,1.6-1.3,2.8-1.3c1.2,0,2.2,0.4,2.8,1.3c0.6,0.8,0.9,2,0.9,3.4c0,1.4-0.3,2.5-0.9,3.4C156,70.4,155.1,70.8,153.8,70.8z
			 M152.5,64c-0.3,0.6-0.4,1.3-0.4,2.2c0,0.9,0.1,1.6,0.4,2.2c0.3,0.6,0.7,0.8,1.3,0.8c0.6,0,1-0.3,1.3-0.8c0.3-0.6,0.4-1.3,0.4-2.2
			c0-0.9-0.1-1.6-0.4-2.2c-0.3-0.5-0.7-0.8-1.3-0.8C153.2,63.2,152.8,63.4,152.5,64z"/>
		<path fill="#1D1D1B" d="M164.8,61.7v1.7h-3.6v1.5c0.3-0.1,0.6-0.1,0.9-0.1c0.9,0,1.6,0.3,2.2,0.8s0.9,1.2,0.9,2.1
			c0,0.9-0.3,1.6-1,2.2c-0.6,0.6-1.5,0.9-2.4,0.9c-1.2,0-2.2-0.5-3.1-1.4L160,68c0.1,0.1,0.2,0.2,0.3,0.3c0.1,0.1,0.4,0.3,0.7,0.4
			c0.3,0.2,0.7,0.3,1,0.3c0.3,0,0.6-0.1,0.9-0.3c0.3-0.2,0.4-0.5,0.4-0.9c0-0.4-0.1-0.7-0.4-0.9c-0.3-0.2-0.7-0.3-1.1-0.3
			s-1,0.2-1.6,0.5l-0.8-0.9v-4.4H164.8z"/>
		<path fill="#1D1D1B" d="M170.4,70.8c-1.2,0-2.2-0.4-2.8-1.3c-0.6-0.8-0.9-2-0.9-3.4c0-1.4,0.3-2.5,0.9-3.4
			c0.6-0.8,1.6-1.3,2.8-1.3c1.2,0,2.2,0.4,2.8,1.3c0.6,0.8,0.9,2,0.9,3.4c0,1.4-0.3,2.5-0.9,3.4C172.6,70.4,171.7,70.8,170.4,70.8z
			 M169.1,64c-0.3,0.6-0.4,1.3-0.4,2.2c0,0.9,0.1,1.6,0.4,2.2c0.3,0.6,0.7,0.8,1.3,0.8c0.6,0,1-0.3,1.3-0.8c0.3-0.6,0.4-1.3,0.4-2.2
			c0-0.9-0.1-1.6-0.4-2.2c-0.3-0.5-0.7-0.8-1.3-0.8C169.8,63.2,169.4,63.4,169.1,64z"/>
		<path fill="#1D1D1B" d="M179.4,63.2c-0.6,0-1,0.2-1.3,0.6c-0.3,0.4-0.5,0.9-0.6,1.5c0.6-0.4,1.2-0.5,1.8-0.5
			c0.8,0,1.5,0.3,2.1,0.8c0.6,0.6,0.8,1.3,0.8,2.2c0,0.9-0.3,1.6-0.9,2.2c-0.6,0.6-1.4,0.8-2.3,0.8c-0.6,0-1.2-0.1-1.7-0.4
			c-0.5-0.2-0.8-0.6-1.1-1c-0.5-0.9-0.8-1.9-0.8-3.2c0-0.8,0.1-1.5,0.3-2.2c0.2-0.6,0.5-1.1,0.8-1.5c0.7-0.7,1.5-1.1,2.6-1.1
			c0.4,0,0.8,0.1,1.2,0.2c0.4,0.1,0.7,0.3,0.9,0.4c0.2,0.1,0.4,0.3,0.7,0.5l-1,1.4c-0.1-0.1-0.1-0.1-0.2-0.2
			c-0.1-0.1-0.3-0.2-0.6-0.3C180,63.3,179.7,63.2,179.4,63.2z M179.2,66.5c-0.4,0-0.7,0.1-1,0.4c-0.3,0.2-0.4,0.5-0.4,0.9
			s0.1,0.7,0.4,1c0.3,0.3,0.6,0.4,1,0.4c0.4,0,0.7-0.1,1-0.4c0.3-0.2,0.4-0.6,0.4-0.9c0-0.4-0.1-0.7-0.3-1
			C179.9,66.6,179.6,66.5,179.2,66.5z"/>
		<path fill="#1D1D1B" d="M183.6,64.6v-2.9h6.5v1.5l-3.6,7.5h-2.2l3.5-7.3h-2.3v1.2H183.6z"/>
		<path fill="#1D1D1B" d="M195,63.2c-0.6,0-1,0.2-1.3,0.6c-0.3,0.4-0.5,0.9-0.6,1.5c0.6-0.4,1.2-0.5,1.8-0.5c0.8,0,1.5,0.3,2.1,0.8
			c0.6,0.6,0.8,1.3,0.8,2.2c0,0.9-0.3,1.6-0.9,2.2c-0.6,0.6-1.4,0.8-2.3,0.8c-0.6,0-1.2-0.1-1.7-0.4c-0.5-0.2-0.8-0.6-1.1-1
			c-0.5-0.9-0.8-1.9-0.8-3.2c0-0.8,0.1-1.5,0.3-2.2c0.2-0.6,0.5-1.1,0.8-1.5c0.7-0.7,1.5-1.1,2.6-1.1c0.4,0,0.8,0.1,1.2,0.2
			c0.4,0.1,0.7,0.3,0.9,0.4c0.2,0.1,0.4,0.3,0.7,0.5l-1,1.4c-0.1-0.1-0.1-0.1-0.2-0.2c-0.1-0.1-0.3-0.2-0.6-0.3
			C195.6,63.3,195.3,63.2,195,63.2z M194.8,66.5c-0.4,0-0.7,0.1-1,0.4c-0.3,0.2-0.4,0.5-0.4,0.9s0.1,0.7,0.4,1
			c0.3,0.3,0.6,0.4,1,0.4s0.7-0.1,1-0.4c0.3-0.2,0.4-0.6,0.4-0.9c0-0.4-0.1-0.7-0.3-1C195.5,66.6,195.2,66.5,194.8,66.5z"/>
		<path fill="#1D1D1B" d="M205.1,61.7v1.7h-3.6v1.5c0.3-0.1,0.6-0.1,0.9-0.1c0.9,0,1.6,0.3,2.2,0.8s0.9,1.2,0.9,2.1
			c0,0.9-0.3,1.6-1,2.2c-0.6,0.6-1.5,0.9-2.4,0.9c-1.2,0-2.2-0.5-3.1-1.4l1.1-1.5c0.1,0.1,0.2,0.2,0.3,0.3c0.1,0.1,0.4,0.3,0.7,0.4
			c0.3,0.2,0.7,0.3,1,0.3c0.3,0,0.6-0.1,0.9-0.3c0.3-0.2,0.4-0.5,0.4-0.9c0-0.4-0.1-0.7-0.4-0.9c-0.3-0.2-0.7-0.3-1.1-0.3
			c-0.5,0-1,0.2-1.6,0.5l-0.8-0.9v-4.4H205.1z"/>
		<path fill="#1D1D1B" d="M210.7,70.8c-1.2,0-2.2-0.4-2.8-1.3c-0.6-0.8-0.9-2-0.9-3.4c0-1.4,0.3-2.5,0.9-3.4
			c0.6-0.8,1.6-1.3,2.8-1.3c1.2,0,2.2,0.4,2.8,1.3c0.6,0.8,0.9,2,0.9,3.4c0,1.4-0.3,2.5-0.9,3.4C212.9,70.4,212,70.8,210.7,70.8z
			 M209.4,64c-0.3,0.6-0.4,1.3-0.4,2.2c0,0.9,0.1,1.6,0.4,2.2c0.3,0.6,0.7,0.8,1.3,0.8c0.6,0,1-0.3,1.3-0.8c0.3-0.6,0.4-1.3,0.4-2.2
			c0-0.9-0.1-1.6-0.4-2.2c-0.3-0.5-0.7-0.8-1.3-0.8C210.1,63.2,209.7,63.4,209.4,64z"/>
		<path fill="#1D1D1B" d="M119.1,88.8h-2l-2.4-6.9h2l1.4,4.2l1.4-4.2h1.9l1.4,4.2l1.4-4.2h2l-2.4,6.9h-2l-1.3-3.8L119.1,88.8z"/>
		<path fill="#1D1D1B" d="M130.7,88.8h-2l-2.4-6.9h2l1.4,4.2l1.4-4.2h1.9l1.4,4.2l1.4-4.2h2l-2.4,6.9h-2L132,85L130.7,88.8z"/>
		<path fill="#1D1D1B" d="M142.3,88.8h-2l-2.4-6.9h2l1.4,4.2l1.4-4.2h1.9l1.4,4.2l1.4-4.2h2l-2.4,6.9h-2l-1.3-3.8L142.3,88.8z"/>
		<path fill="#1D1D1B" d="M150.2,88.6c-0.2-0.2-0.3-0.5-0.3-0.8c0-0.3,0.1-0.6,0.3-0.8c0.2-0.2,0.5-0.3,0.8-0.3
			c0.3,0,0.6,0.1,0.8,0.3c0.2,0.2,0.3,0.5,0.3,0.8c0,0.3-0.1,0.6-0.3,0.8c-0.2,0.2-0.5,0.3-0.8,0.3
			C150.6,88.9,150.4,88.8,150.2,88.6z"/>
		<path fill="#1D1D1B" d="M155.9,83.3v3.1c0,0.3,0.1,0.5,0.2,0.6c0.1,0.2,0.3,0.2,0.5,0.2c0.4,0,0.7-0.2,0.9-0.5l0.7,1.4
			c-0.6,0.6-1.2,0.8-1.9,0.8c-0.7,0-1.2-0.2-1.7-0.7c-0.5-0.4-0.7-1-0.7-1.8v-3.2h-0.8v-1.4h0.8v-2.1h1.9v2.1h1.7v1.4H155.9z"/>
		<path fill="#1D1D1B" d="M163.7,85.6v-3.7h1.9v6.9h-1.9v-0.9c-0.5,0.7-1.1,1-1.9,1s-1.4-0.2-1.9-0.7c-0.5-0.5-0.8-1.2-0.8-2.1v-4.2
			h1.9v3.8c0,1.1,0.4,1.6,1.2,1.6c0.4,0,0.7-0.1,1-0.4C163.6,86.6,163.7,86.2,163.7,85.6z"/>
		<path fill="#1D1D1B" d="M169.3,88.8l-2.7-6.9h2l1.7,4.4l1.7-4.4h2l-2.7,6.9H169.3z"/>
		<path fill="#1D1D1B" d="M174.7,88.6c-0.2-0.2-0.3-0.5-0.3-0.8c0-0.3,0.1-0.6,0.3-0.8c0.2-0.2,0.5-0.3,0.8-0.3
			c0.3,0,0.6,0.1,0.8,0.3c0.2,0.2,0.3,0.5,0.3,0.8c0,0.3-0.1,0.6-0.3,0.8c-0.2,0.2-0.5,0.3-0.8,0.3C175.2,88.9,175,88.8,174.7,88.6z
			"/>
		<path fill="#1D1D1B" d="M181.6,87.2c0.6,0,1.2-0.3,1.7-1l1.1,1.3c-0.9,0.9-1.9,1.4-2.9,1.4c-1,0-1.9-0.3-2.6-1
			c-0.7-0.7-1.1-1.5-1.1-2.6s0.4-1.9,1.1-2.6c0.7-0.7,1.6-1,2.6-1c0.5,0,1,0.1,1.5,0.3c0.5,0.2,1,0.5,1.3,0.9l-1,1.3
			c-0.2-0.3-0.5-0.5-0.8-0.6c-0.3-0.1-0.6-0.2-1-0.2c-0.5,0-0.9,0.2-1.3,0.5c-0.4,0.3-0.5,0.8-0.5,1.4c0,0.6,0.2,1,0.5,1.4
			C180.7,87.1,181.2,87.2,181.6,87.2z"/>
		<path fill="#1D1D1B" d="M192.6,85.4c0,1-0.3,1.9-1,2.5c-0.7,0.7-1.6,1-2.6,1c-1.1,0-1.9-0.3-2.6-1c-0.7-0.7-1-1.5-1-2.5
			c0-1,0.3-1.9,1-2.5c0.7-0.7,1.6-1,2.6-1c1.1,0,1.9,0.3,2.6,1C192.3,83.5,192.6,84.4,192.6,85.4z M187.3,85.4c0,0.6,0.2,1,0.5,1.4
			c0.3,0.4,0.7,0.5,1.2,0.5c0.5,0,0.9-0.2,1.2-0.5c0.3-0.4,0.5-0.8,0.5-1.4c0-0.6-0.2-1-0.5-1.4c-0.3-0.4-0.7-0.5-1.2-0.5
			c-0.5,0-0.9,0.2-1.2,0.5C187.4,84.3,187.3,84.8,187.3,85.4z"/>
		<path fill="#1D1D1B" d="M200.4,85.1v3.7h-1.9V85c0-0.6-0.1-1-0.3-1.2c-0.2-0.3-0.4-0.4-0.8-0.4c-0.4,0-0.7,0.1-1,0.4
			c-0.3,0.3-0.4,0.7-0.4,1.2v3.7h-1.9v-6.9h1.9v0.8c0.5-0.6,1.1-0.9,1.8-0.9c0.4,0,0.8,0.1,1.2,0.4c0.4,0.3,0.6,0.6,0.8,0.9
			c0.3-0.4,0.6-0.7,1.1-1c0.5-0.2,0.9-0.3,1.4-0.3c0.8,0,1.5,0.2,2,0.7c0.5,0.5,0.7,1.2,0.7,2.1v4.2H203V85c0-1.1-0.4-1.6-1.2-1.6
			c-0.4,0-0.7,0.1-1,0.4C200.6,84.1,200.4,84.5,200.4,85.1z"/>
	</g>
</g>
</svg>
