<?xml version="1.0" encoding="utf-8"?>
<!-- Generator: Adobe Illustrator 24.0.1, SVG Export Plug-In . SVG Version: 6.00 Build 0)  -->
<svg version="1.1" id="Capa_1" xmlns="http://www.w3.org/2000/svg" xmlns:xlink="http://www.w3.org/1999/xlink" x="0px" y="0px"
	 viewBox="0 0 163.9 31.7" style="enable-background:new 0 0 163.9 31.7;" xml:space="preserve">
<style type="text/css">
	.st0{fill:#FFFFFF;}
</style>
<g>
	<path class="st0" d="M15.9,1.3c8,0,14.5,6.5,14.5,14.5s-6.5,14.5-14.5,14.5S1.3,23.9,1.3,15.9S7.9,1.3,15.9,1.3 M15.9,0
		C7.1,0,0,7.1,0,15.9c0,8.8,7.1,15.9,15.9,15.9s15.9-7.1,15.9-15.9C31.7,7.1,24.6,0,15.9,0L15.9,0z"/>
	<g>
		<g>
			<path class="st0" d="M42.8,8.7v12.4h7.5v1h-8.6V8.7H42.8z"/>
			<path class="st0" d="M51.8,11L51.8,11l1.1-2.3H54v0L52.7,11H51.8z M51.9,12.6v9.5h0.9v-9.5H51.9z"/>
			<path class="st0" d="M56.4,12.7v1.7c0.7-1.3,2-1.8,3.4-1.9c2.5,0,4.3,1.6,4.3,4.2v5.5h-0.9v-5.4c0-2.1-1.3-3.3-3.4-3.3
				c-2,0-3.3,1.5-3.3,3.4v5.3h-0.9v-9.5H56.4z"/>
			<path class="st0" d="M65.9,17.4c0-2.8,2.1-4.9,4.8-4.9c2.7,0,5,1.6,4.7,5.3h-8.5c0.2,2.2,1.9,3.5,3.8,3.5c1.2,0,2.7-0.5,3.4-1.4
				l0.7,0.5c-0.9,1.2-2.6,1.8-4.1,1.8C68.1,22.3,65.9,20.4,65.9,17.4z M74.6,17c0-2.3-1.6-3.6-3.8-3.6c-2,0-3.6,1.3-3.8,3.6H74.6z"
				/>
			<path class="st0" d="M87,12.7c0,3.2,0,6.3,0,9.5H86v-2c-0.9,1.5-2.3,2.2-3.9,2.2c-2.6,0-4.8-2-4.8-4.9s2.2-4.8,4.8-4.8
				c1.5,0,3.1,0.7,3.9,2.2v-2.1H87z M78.3,17.4c0,2.4,1.7,4,3.9,4c5.3,0,5.3-7.9,0-7.9C80,13.4,78.3,15,78.3,17.4z"/>
			<path class="st0" d="M105.6,12.6c0,1-0.5,2-1.7,2.6c1.6,0.5,2.1,2.1,2.1,3c0,3-2.2,3.9-5,3.9c-2.1,0-4.2,0-6.4,0V8.7
				c2.1,0,4.2,0,6.4,0C103.6,8.7,105.6,9.9,105.6,12.6z M97.1,14.1h3.9c1.6,0,2.1-0.7,2.1-1.4c0-0.6-0.5-1.6-2.1-1.6h-3.9V14.1z
				 M97.1,19.8h3.9c1,0,2.5-0.3,2.5-1.6c0-1.2-1.5-1.8-2.5-1.8h-3.9V19.8z"/>
			<path class="st0" d="M117,17.4c0,2.7-1.9,4.9-4.9,4.9c-3.1,0-4.9-2.2-4.9-4.9c0-2.7,1.9-4.9,4.9-4.9S117,14.7,117,17.4z
				 M109.5,17.4c0,1.4,0.9,2.8,2.6,2.8c1.7,0,2.6-1.3,2.6-2.8c0-1.4-1-2.8-2.6-2.8C110.3,14.6,109.5,16,109.5,17.4z"/>
			<path class="st0" d="M128.2,12.7l-4,9.5h-2.5l-4-9.5h2.5l1.3,3.1l1.5,4l1.4-3.9l1.3-3.2H128.2z"/>
			<path class="st0" d="M131.8,10c0,1.8-2.8,1.8-2.8,0S131.8,8.2,131.8,10z M129.3,12.6v9.5h2.3v-9.5H129.3z"/>
			<path class="st0" d="M140.7,22.1v-4.9c0-1.4-0.8-2.5-2.3-2.5c-1.4,0-2.4,1.2-2.4,2.6v4.8h-2.3v-9.5h2.1l0.2,1.3
				c1-0.9,1.9-1.4,3.1-1.4c2.2,0,4,1.7,4,4.6v5H140.7z"/>
			<path class="st0" d="M154.4,17.4c0,2.7-1.9,4.9-4.9,4.9c-3.1,0-4.9-2.2-4.9-4.9c0-2.7,1.9-4.9,4.9-4.9
				C152.5,12.5,154.4,14.7,154.4,17.4z M146.9,17.4c0,1.4,0.9,2.8,2.6,2.8c1.7,0,2.6-1.3,2.6-2.8c0-1.4-1-2.8-2.6-2.8
				C147.8,14.6,146.9,16,146.9,17.4z"/>
			<path class="st0" d="M162.2,15.2c-0.7-0.6-1.4-0.8-2.3-0.8c-1.1,0-1.7,0.3-1.7,0.9c0,0.6,0.6,1,1.8,1c1.8,0.1,4,0.5,4,3
				c0,1.7-1.4,3.1-4.1,3.1c-1.5,0-3-0.2-4.4-1.7l1.1-1.7c0.7,0.7,2.2,1.3,3.3,1.3c0.9,0,1.7-0.4,1.7-1.1c0-0.7-0.5-0.9-1.9-1
				c-1.8-0.1-3.9-0.8-3.9-2.9c0-2.2,2.3-2.9,4-2.9c1.5,0,2.6,0.3,3.7,1.2L162.2,15.2z"/>
		</g>
	</g>
	<g id="XMLID_1_">
		<path class="st0" d="M12,24.9c0-0.3,0.3-0.5,0.2-0.9c0-0.2,0.2-0.1,0.3-0.2c0.2-1,0-1.8,0.1-2.7c0.1-0.4,0.3-0.8,0.3-1.2
			c0.1-0.4,0.1-0.8,0.2-1.3c0.3,0.5,0.4,1.1,0.8,1.6c0,0.5,0.1,0.9,0.2,1.3c0.1,0.4,0.3,0.9,0.2,1.3c-0.1,0.5-0.6,0.7-0.5,1.3
			c0.5,0.2,1.2,0.1,1.6-0.3c-0.1-0.4-0.2-0.8,0.1-1c-0.3-0.8-0.6-1.7-0.7-2.7c0-0.3,0.1-0.6,0.1-0.8c0-0.1-0.1-0.2-0.1-0.2l0,0
			c0,0-0.2-1.1,0.3-1.5c0.6,0,1.2,0.1,1.9,0.2c0.7,0.1,1.4,0.4,2.2,0.4c0.4,0,0.9-0.2,1.2-0.3c0.3-0.1,0.9-0.5,1.1-0.4
			c0.3,0.1,0.2,0.6,0.4,0.9c0.1,0.2,0.5,0.3,0.5,0.5c0,0.2,0,0.3,0,0.5l0,0c0,0,0,0.1,0.1,0.1c0,0,0,0,0,0c0,0,0,0,0,0
			c0,0,0,0,0.1,0c0,0,0,0,0,0c0,0,0,0,0,0l0,0c0.2,0.1,0.5,0,0.6,0c0.1-0.1-0.1-0.3,0-0.4c0.3,0.1-0.1,0.6,0.2,0.8
			c0.2,0,0.4,0,0.5,0.2c-0.4,1.1-1.2,1.8-1.7,2.9c0,0.1-0.2,0-0.2,0.1c-0.2,0.3-0.6,0.6-0.6,1.1c0,0,0,0,0.1,0l0,0
			c0,0,1.1,0.2,1.5,0c0,0,0,0,0,0c0,0,0,0,0,0c0,0,0.1,0,0.1-0.1h0c0.1-0.1,0-0.3,0-0.4c0-0.4,0.5-0.7,1-0.7c0-1,0.5-1.6,0.9-2.3
			c0.1-0.2,0.3-0.5,0.5-0.7c0.2-0.2,0.5-0.4,0.6-0.6c0.1-0.2,0-0.5,0.2-0.7c0.2,0.2,0.6,0.4,0.7,0.7c0,0.1,0,0.2,0.1,0.3
			c0.1,0.5,0.5,0.8,0.7,1.2c0.2,0.5,0.2,1,0.3,1.6c0,0.3,0.1,0.8,0,1.2c-0.1,0.5-0.7,0.8-0.6,1.5c0.1,0.1,0.2,0.1,0.4,0.1
			c0,0,0,0,0,0c0.3,0,0.6,0,1-0.1c0.1-0.2,0.1-0.3,0.1-0.5c0-0.2,0-0.4,0-0.5c0-0.2,0.1-0.3,0.2-0.5c0,0,0.4-0.4,0.2-1.2
			c0,0,0,0,0,0c-0.1-0.3-0.2-0.7-0.2-1.1c-0.1-0.6-0.2-1.2-0.1-1.7c0-0.5,0.2-1.1,0-1.4c-0.2-0.4-0.6-0.4-0.7-0.9c0-0.2,0-0.4,0-0.6
			c0-0.7,0.2-1.4,0.3-2.2c0-0.3,0.1-0.7,0.1-1.1c0-0.4,0.2-0.7,0.2-1.1c0,0,0,0,0-0.1c0.1,1.3-0.1,2.7-0.1,2.7
			c-0.1,0.9-0.3,2.2-0.1,2.5l0,0c0,0,0,0,0,0c0.1,0.1,0.3,0.3,0.5,0.4c0,0,0,0,0,0c0.2-0.4-0.2-1.8-0.1-2.8c0-0.1,0.5-3.3-0.6-4.6
			c-0.2-0.2-0.4-0.4-0.7-0.4c-0.7-0.4-1.7-0.3-2.7-0.4c-0.5,0-1-0.1-1.5-0.1c-0.5,0-1.1,0.1-1.6,0.1c-0.9,0-1.9-0.2-2.8-0.3
			c-1.2-0.1-2.4,0-3.6,0.1c-0.4,0-0.8,0.1-1.2,0c-0.5,0-1-0.2-1.5-0.2c-0.3-0.1-0.7-0.1-1.1-0.1c0-0.3-0.1-0.4-0.3-0.5
			c-0.1,0-0.2,0-0.3,0c0,0,0,0,0,0c0,0,0,0,0,0c0,0,0,0,0,0c-0.1,0-0.3,0-0.4,0c0,0,0,0,0,0c-0.1,0-0.1,0-0.2,0c0,0,0,0,0,0
			c0,0,0,0,0,0h0c-0.1,0-0.1,0-0.2,0.1C9.9,9,9.6,9.4,9.3,8.9c0.3,0,0.6,0,0.9-0.1c0.2-0.2,0.3-0.5,0.3-0.8c0.1-0.2,0.2-0.4,0.3-0.6
			c0-0.1,0-0.1-0.1-0.2c-0.6,0.1-0.6,1-1.2,1C9.4,8.2,9.1,8,8.9,8C8.9,8,8.8,8,8.7,8C8.4,8,8.1,7.8,7.9,7.8c-0.3,0-0.5-0.1-0.8,0
			c0,0-0.1,0-0.1,0C6.6,7.8,6.2,7.8,6,7.5C5.9,7.3,6.1,7,5.9,6.8C5.7,7,5.6,7.5,5.7,7.8c0,0.2,0.1,0.3,0.3,0.4
			c0.1,0.1,0.3,0.2,0.6,0.2c0,0.1,0,0.2-0.1,0.3C6.4,8.8,6.3,8.9,6.2,9C5.9,8.9,5.7,8.5,5.3,8.4c-0.1,0-0.8,1.1,0.9,1.7
			c0.2,0.5,0.1,1.1,0,1.6c-0.1,0.1-0.3,0.1-0.3,0.3c0,0.1,0.1,0.2,0.1,0.3c0,0.2-0.1,0.2-0.1,0.3c0,0.1,0.1,0.3,0.2,0.4l0,0l0,0
			c0.3,0.3,0.8,0.4,1.3,0.3c0.1,0,0.2-0.1,0.3-0.1c0.2,0,0.8,0.3,1,0.5c0.1,0.2,0.1,0.5,0.2,0.8c0.1,0.4,0.4,0.7,0.4,0.9
			c0.1,0.2,0,0.4,0.1,0.6c0.1,0.4,0.4,0.4,0.6,0.7c0.1,0.1,0.2,0.2,0.2,0.4c0.2,0.3,0.4,0.7,0.7,0.9c0.2,0.1,0.5,0.2,0.5,0.3
			c0,0.3,0,0.8,0,1.2c0,0.4,0.1,0.8,0.2,1.2c0,0.4-0.1,1-0.1,1.5c0,0.4,0.1,0.7,0,1c-0.1,0.5-0.8,0.8-0.8,1.4l0.1,0.1
			C10.9,25,11.6,25.1,12,24.9z"/>
	</g>
</g>
</svg>
