<?xml version="1.0" encoding="utf-8"?>
<!-- Generator: Adobe Illustrator 24.0.1, SVG Export Plug-In . SVG Version: 6.00 Build 0)  -->
<svg version="1.1" id="Capa_1" xmlns="http://www.w3.org/2000/svg" xmlns:xlink="http://www.w3.org/1999/xlink" x="0px" y="0px"
	 viewBox="0 0 171.8 82.9" style="enable-background:new 0 0 171.8 82.9;" xml:space="preserve">
<style type="text/css">
	.st0{fill:#3F5C9F;}
	.st1{fill:#C5C5C5;}
	.st2{clip-path:url(#SVGID_2_);}
	.st3{clip-path:url(#SVGID_4_);fill:url(#SVGID_5_);}
	.st4{fill-rule:evenodd;clip-rule:evenodd;fill:#74859E;}
	.st5{clip-path:url(#SVGID_7_);}
	.st6{clip-path:url(#SVGID_9_);fill:url(#SVGID_10_);}
	.st7{clip-path:url(#SVGID_12_);}
	.st8{clip-path:url(#SVGID_14_);fill:url(#SVGID_15_);}
	.st9{fill:#FFFFFF;}
</style>
<g>
	<g>
		<path class="st0" d="M28.4,74h1.6v8.6h-1v0l-4.5-5.8v5.8h-1.6v-8.6h1.3l4.2,5.3V74z"/>
		<path class="st0" d="M39.7,74.1V79c0,2.5-1.6,3.8-3.7,3.8c-2.1,0-3.8-1.3-3.8-3.8v-4.9h1.6V79c0,1.5,0.9,2.4,2.2,2.4
			c1.3,0,2.1-0.9,2.1-2.4v-4.9H39.7z"/>
		<path class="st0" d="M44.1,75.5h-2.7v-1.5c2.5,0,4.6,0,7.1,0v1.5h-2.7v7.1h-1.6V75.5z"/>
		<path class="st0" d="M57.7,82.7h-1.9l-2.5-2.9h-1.6v2.9h-1.6V74c1.4,0,2.7,0,4.1,0c2,0,3.1,1.4,3.1,2.9c0,1.2-0.5,2.4-2.2,2.7
			l2.6,2.9V82.7z M51.7,75.6v2.8h2.5c1,0,1.5-0.7,1.5-1.4c0-0.7-0.5-1.4-1.5-1.4H51.7z"/>
		<path class="st0" d="M59,82.7v-8.6h1.6v8.6H59z"/>
		<path class="st0" d="M70.3,81.6c-0.9,0.9-2,1.3-3.3,1.3c-3.2,0-4.5-2.2-4.6-4.4c0-2.2,1.5-4.5,4.6-4.5c1.2,0,2.3,0.4,3.2,1.3
			l-1.1,1c-0.6-0.6-1.3-0.8-2.1-0.8c-2.1,0-3,1.5-3,3c0,1.4,0.8,2.9,3,2.9c0.7,0,1.6-0.3,2.2-0.9L70.3,81.6z"/>
		<path class="st0" d="M71.9,82.7v-8.6h1.6v8.6H71.9z"/>
		<path class="st0" d="M79.9,73.9c3,0,4.4,2.3,4.4,4.5c0,2.2-1.4,4.4-4.4,4.4c-3,0-4.4-2.2-4.4-4.4C75.5,76.2,77,73.9,79.9,73.9z
			 M79.9,75.4c-2,0-2.9,1.6-2.8,3.1c0,1.4,0.8,2.9,2.8,2.9c2,0,2.8-1.5,2.8-2.9C82.8,77,82,75.4,79.9,75.4z M81.9,71.4h-1.8
			l-0.9,1.7v0.1h1.3L81.9,71.4L81.9,71.4z"/>
		<path class="st0" d="M91.8,74h1.6v8.6h-1v0l-4.5-5.8v5.8h-1.6v-8.6h1.3l4.2,5.3V74z"/>
		<path class="st0" d="M104.7,81h-4.5l-0.7,1.6h-1.8l3.9-8.6h1.8l3.9,8.6h-1.8L104.7,81z M102.5,75.9l-1.6,3.7h3.2L102.5,75.9z"/>
		<path class="st0" d="M114.2,74h1.6v8.6h-1v0l-4.5-5.8v5.8h-1.6v-8.6h1.3l4.2,5.3V74z"/>
		<path class="st0" d="M118,82.7v-8.6h1.6v8.6H118z"/>
		<path class="st0" d="M129.2,76.4l-2.8,3.7h-0.3l-2.7-3.7v6.3h-1.6v-8.6h1.9l2.7,3.7l2.7-3.7h1.9v8.6h-1.6V76.4z"/>
		<path class="st0" d="M139.1,81h-4.5l-0.7,1.6h-1.8l3.9-8.6h1.8l3.9,8.6h-1.8L139.1,81z M136.8,75.9l-1.6,3.7h3.2L136.8,75.9z"/>
		<path class="st0" d="M144.7,74.1v7.1h4.4v1.5h-6v-8.6H144.7z"/>
	</g>
	<g>
		<path class="st1" d="M85.9,66.6c-11,0-21.3-5.4-27.5-14.5H18.8C8.5,52.2,0,43.7,0,33.3c0-10.4,8.5-18.8,18.8-18.8h39.6
			C64.6,5.4,74.9,0,85.9,0s21.3,5.4,27.5,14.5H153c10.4,0,18.8,8.5,18.8,18.8c0,10.4-8.5,18.8-18.8,18.8h-39.6
			C107.2,61.2,96.9,66.6,85.9,66.6z M18.8,15.1c-10.1,0-18.3,8.2-18.3,18.3s8.2,18.3,18.3,18.3h39.9l0.1,0.1
			c6.1,9,16.2,14.4,27.1,14.4s21-5.4,27.1-14.4l0.1-0.1H153c10.1,0,18.3-8.2,18.3-18.3S163,15.1,153,15.1h-39.9l-0.1-0.1
			c-6.1-9-16.2-14.4-27.1-14.4c-10.7,0-20.7,5.2-26.8,14l2.9,0.5c2.4-3.1,5.4-5.8,8.9-7.8c4.6-2.6,9.8-4,15-4c5.3,0,10.5,1.4,15,4
			c4.4,2.5,8.1,6.1,10.7,10.5H153c8.6,0,15.6,7,15.6,15.6c0,8.6-7,15.6-15.6,15.6h-41.3c-2.6,4.3-6.3,7.9-10.7,10.5
			c-4.6,2.6-9.8,4-15,4c-5.3,0-10.5-1.4-15-4c-4.4-2.5-8.1-6.1-10.7-10.5H18.8c-8.6,0-15.6-7-15.6-15.6c0-8.6,7-15.6,15.6-15.6h41.3
			c0.4-0.7,0.9-1.4,1.4-2.1l-3-0.5H18.8z M3.8,33.6c0.2,8.2,6.8,14.7,15,14.7h41.7l0.1,0.1c5.4,9,14.9,14.3,25.3,14.3
			c10.5,0,19.9-5.4,25.3-14.3l0.1-0.1H153c8.2,0,14.9-6.6,15-14.7H3.8z M3.8,33h161L62.2,15.7c-0.6,0.8-1.1,1.6-1.6,2.5l-0.1,0.1
			H18.8C10.7,18.3,4,24.9,3.8,33z M62.6,15.2L168,33c-0.2-8.1-6.9-14.7-15-14.7h-41.7l-0.1-0.1c-5.4-9-14.9-14.3-25.3-14.3
			C76.7,3.8,68.2,8,62.6,15.2z"/>
		<g>
			<defs>
				<path id="SVGID_1_" d="M58.6,14.8H18.8c-10.2,0-18.6,8.3-18.6,18.6c0,10.2,8.3,18.6,18.6,18.6h39.7c6.1,9,16.3,14.5,27.3,14.5
					c11,0,21.2-5.5,27.3-14.5H153c10.2,0,18.6-8.3,18.6-18.6c0-10.2-8.3-18.6-18.6-18.6h-39.7c-6.1-9-16.3-14.5-27.3-14.5
					C74.9,0.3,64.7,5.8,58.6,14.8L58.6,14.8z M168.3,33.3L58.6,14.8L168.3,33.3L168.3,33.3z M3.5,33.3h164.8H3.5L3.5,33.3z M60.3,18
					C65.6,9.3,75,3.5,85.9,3.5c10.9,0,20.4,5.8,25.6,14.5H153c8.4,0,15.3,6.9,15.3,15.3c0,8.4-6.9,15.3-15.3,15.3h-41.5
					c-5.2,8.7-14.7,14.5-25.6,14.5c-10.9,0-20.4-5.8-25.6-14.5H18.8c-8.4,0-15.3-6.9-15.3-15.3c0-8.4,6.9-15.3,15.3-15.3H60.3
					L60.3,18z"/>
			</defs>
			<clipPath id="SVGID_2_">
				<use xlink:href="#SVGID_1_"  style="overflow:visible;"/>
			</clipPath>
			<g class="st2">
				<defs>
					<rect id="SVGID_3_" x="0.3" y="0.3" width="171.2" height="66.1"/>
				</defs>
				<clipPath id="SVGID_4_">
					<use xlink:href="#SVGID_3_"  style="overflow:visible;"/>
				</clipPath>
				<linearGradient id="SVGID_5_" gradientUnits="userSpaceOnUse" x1="6.399" y1="11.8376" x2="176.4509" y2="57.6368">
					<stop  offset="0" style="stop-color:#B0B0AF"/>
					<stop  offset="0.14" style="stop-color:#F3F3F3"/>
					<stop  offset="0.285" style="stop-color:#ADADAD"/>
					<stop  offset="0.4285" style="stop-color:#FFFFFF"/>
					<stop  offset="0.57" style="stop-color:#D7D7D7"/>
					<stop  offset="0.7212" style="stop-color:#A9A9A9"/>
					<stop  offset="0.8598" style="stop-color:#ECECEC"/>
					<stop  offset="1" style="stop-color:#D5D5D5"/>
				</linearGradient>
				<rect x="0.3" y="0.1" class="st3" width="171.2" height="66.2"/>
			</g>
		</g>
		<path class="st4" d="M60.3,18H18.8c-8.4,0-15.3,6.9-15.3,15.3c0,8.4,6.9,15.3,15.3,15.3h41.5c5.2,8.7,14.7,14.5,25.6,14.5
			c10.9,0,20.4-5.8,25.6-14.5H153c8.4,0,15.3-6.9,15.3-15.3c0-8.4-6.9-15.3-15.3-15.3h-41.5C106.3,9.3,96.8,3.5,85.9,3.5
			C75,3.5,65.6,9.3,60.3,18L60.3,18z"/>
		<g>
			<defs>
				<path id="SVGID_6_" d="M7.9,44.1c23.9-5.6,52.4-10.8,73.4-10.7c37.1,0.3,56.6-0.8,83.2-10.1c-2.8-3.3-7-5.3-11.6-5.3h-41.5
					C106.3,9.3,96.8,3.5,85.9,3.5C75,3.5,65.6,9.3,60.3,18l0,0H18.8c-8.4,0-15.3,6.9-15.3,15.3C3.5,37.5,5.2,41.3,7.9,44.1L7.9,44.1
					L7.9,44.1z"/>
			</defs>
			<clipPath id="SVGID_7_">
				<use xlink:href="#SVGID_6_"  style="overflow:visible;"/>
			</clipPath>
			<g class="st5">
				<defs>
					<rect id="SVGID_8_" x="3.5" y="3.5" width="161.1" height="40.6"/>
				</defs>
				<clipPath id="SVGID_9_">
					<use xlink:href="#SVGID_8_"  style="overflow:visible;"/>
				</clipPath>
				<linearGradient id="SVGID_10_" gradientUnits="userSpaceOnUse" x1="78.2526" y1="1.5522" x2="87.7207" y2="43.0014">
					<stop  offset="0" style="stop-color:#232065"/>
					<stop  offset="1" style="stop-color:#607EBD"/>
				</linearGradient>
				<rect x="2.1" y="2.7" class="st6" width="162.4" height="42.3"/>
			</g>
		</g>
		<g>
			<defs>
				<path id="SVGID_11_" d="M81.8,32c-21.1-0.2-50.1,5.8-74.2,11.7c2.8,3,6.8,5,11.3,5h41.5c5.2,8.7,14.7,14.5,25.6,14.5
					c10.9,0,20.4-5.8,25.6-14.5H153c8.4,0,15.3-6.9,15.3-15.3c0-3.8-1.4-7.4-3.8-10.1C138.1,32.2,118.8,32.3,81.8,32L81.8,32z"/>
			</defs>
			<clipPath id="SVGID_12_">
				<use xlink:href="#SVGID_11_"  style="overflow:visible;"/>
			</clipPath>
			<g class="st7">
				<defs>
					<rect id="SVGID_13_" x="7.6" y="23.3" width="160.7" height="39.9"/>
				</defs>
				<clipPath id="SVGID_14_">
					<use xlink:href="#SVGID_13_"  style="overflow:visible;"/>
				</clipPath>
				<linearGradient id="SVGID_15_" gradientUnits="userSpaceOnUse" x1="82.1515" y1="12.4785" x2="92.9049" y2="59.5543">
					<stop  offset="0" style="stop-color:#232065"/>
					<stop  offset="1" style="stop-color:#607EBD"/>
				</linearGradient>
				<rect x="6.7" y="11.3" class="st8" width="162.4" height="53"/>
			</g>
		</g>
	</g>
	<g>
		<path class="st9" d="M19.8,32.2c0,0.5,0,0.5,0.5,0.5h1.2c0.9,0,1.1-0.1,1.3-1l0.1-0.4c0.1-0.1,0.6-0.1,0.6,0
			c0,0.6-0.1,1.2-0.1,1.9s0,1.3,0.1,1.9c-0.1,0.2-0.5,0.2-0.6,0l-0.1-0.4c-0.2-0.8-0.4-1-1.3-1h-1.2c-0.5,0-0.5,0-0.5,0.5v2.1
			c0,0.8,0.1,1.4,0.3,1.7c0.2,0.3,0.6,0.5,1.8,0.5c1.5,0,2.1-0.1,3.1-2c0.1-0.2,0.6-0.1,0.6,0.1c-0.1,0.9-0.5,2.3-0.7,2.8
			c-0.9,0-2.6-0.1-4.1-0.1h-2.3c-0.8,0-1.7,0-3,0.1c-0.1-0.1-0.1-0.5,0-0.6l0.8-0.1c0.8-0.1,0.9-0.2,0.9-1.8v-6.5
			c0-1.6-0.1-1.7-0.9-1.9L16,28.2c-0.2-0.1-0.1-0.5,0-0.6c0.8,0,1.7,0.1,2.5,0.1h3.7c1.1,0,2.1,0,2.4-0.1c0,0.3,0.1,1.5,0.2,2.7
			c-0.1,0.2-0.5,0.2-0.6,0.1c-0.2-0.6-0.4-1.1-0.7-1.4c-0.3-0.3-0.9-0.5-1.7-0.5h-1.4c-0.6,0-0.6,0-0.6,0.7V32.2z"/>
		<path class="st9" d="M30.7,36.3c0,0.8,0.1,1.4,0.3,1.7c0.2,0.3,0.5,0.4,1.8,0.4c1.6,0,2.1-0.1,3.1-2.1c0.1-0.2,0.5-0.1,0.7,0.1
			c-0.1,0.9-0.5,2.4-0.8,2.8c-0.9,0-2.6-0.1-4.1-0.1h-2.4c-0.8,0-1.7,0-2.8,0.1c-0.2-0.1-0.2-0.5-0.1-0.6l0.7-0.1
			c0.8-0.1,0.9-0.2,0.9-1.9v-6.5c0-1.6-0.1-1.8-0.9-1.9l-0.5-0.1c-0.2-0.1-0.2-0.5,0-0.6c0.9,0,1.8,0.1,2.6,0.1s1.7,0,2.6-0.1
			c0.1,0.1,0.1,0.5,0,0.6l-0.5,0.1c-0.8,0.1-0.9,0.3-0.9,1.9V36.3z"/>
		<path class="st9" d="M43.5,30.5c0-1.8,0-2-0.8-2.1l-0.5-0.1c-0.2-0.1-0.2-0.5,0-0.6c1.2-0.1,2.5-0.2,4.1-0.2
			c1.5,0,2.5,0.2,3.2,0.5c1.1,0.4,2.1,1.3,2.1,3c0,2.9-2.9,3.3-3.8,3.3c-0.2,0-0.4,0-0.6,0c-0.1-0.1-0.2-0.4-0.1-0.5
			c1.5-0.5,1.8-1.5,1.8-2.8c0-1.3-0.7-2.7-2.2-2.7c-0.6,0-0.7,0.2-0.7,0.9v7.4c0,1.6,0.1,1.8,0.9,1.9l0.6,0.1c0.2,0.1,0.2,0.5,0,0.6
			c-1,0-1.8-0.1-2.7-0.1c-0.8,0-1.7,0-2.6,0.1c-0.2-0.1-0.2-0.5,0-0.6l0.5-0.1c0.8-0.1,0.9-0.3,0.9-1.9V30.5z"/>
		<path class="st9" d="M54.5,30.5c0-1.8,0-1.9-0.8-2.1l-0.5-0.1c-0.2-0.1-0.2-0.5,0-0.6c1.3-0.1,2.7-0.2,4.4-0.2
			c1.5,0,2.8,0.2,3.4,0.6c1,0.6,1.5,1.5,1.5,2.6c0,1.6-1.1,2.2-1.9,2.6c-0.2,0.1-0.2,0.2-0.1,0.4c1.2,2.4,1.9,3.7,2.7,4.4
			c0.5,0.4,0.9,0.5,1.2,0.5c0.2,0.1,0.2,0.4,0.1,0.5c-0.3,0.1-0.8,0.2-1.4,0.2c-1.6,0-2.6-0.6-3.4-1.8c-0.6-0.9-1-1.8-1.4-2.7
			c-0.2-0.5-0.5-0.6-0.9-0.6c-0.6,0-0.6,0-0.6,0.4v2.2c0,1.6,0.1,1.7,0.9,1.9l0.5,0.1c0.1,0.1,0.1,0.5,0,0.6c-0.9,0-1.7-0.1-2.6-0.1
			c-0.9,0-1.7,0-2.6,0.1c-0.1-0.1-0.1-0.5,0-0.6l0.5-0.1c0.8-0.1,0.9-0.3,0.9-1.9V30.5z M56.9,32.7c0,0.6,0.1,0.7,1.1,0.7
			c0.6,0,1-0.2,1.3-0.5C59.7,32.6,60,32,60,31c0-1.6-0.9-2.6-2.3-2.6c-0.7,0-0.8,0.1-0.8,0.9V32.7z"/>
		<path class="st9" d="M77.2,33.4c0,3.8-2.6,6.1-6.3,6.1c-3.5,0-6.1-2.3-6.1-6c0-3.5,2.6-6.2,6.3-6.2C74.7,27.3,77.2,29.8,77.2,33.4
			z M70.9,28.1c-2.2,0-3.3,2-3.3,5c0,2.1,0.8,5.6,3.6,5.6c2.3,0,3.2-2.2,3.2-5.1C74.4,30.6,73.1,28.1,70.9,28.1z"/>
		<path class="st9" d="M80.4,30.5c0-1.7,0-2-0.8-2.1l-0.3,0c-0.2-0.1-0.2-0.6,0-0.6c1.5-0.1,2.8-0.2,4.7-0.2c1.4,0,2.9,0.1,4.1,0.6
			c2.3,0.8,3.6,2.9,3.6,5.1c0,2.4-1.1,4.2-3.1,5.2c-1.2,0.6-2.6,0.8-4.4,0.8c-0.8,0-1.7-0.1-2.3-0.1c-0.8,0-1.7,0-2.7,0.1
			c-0.1-0.1-0.1-0.5,0-0.6l0.5-0.1c0.8-0.1,0.9-0.3,0.9-1.9V30.5z M82.9,36c0,1,0,1.6,0.4,2c0.3,0.4,0.8,0.5,1.5,0.5
			c3,0,4.1-2.7,4.1-5.1c0-3.2-1.7-5-4.8-5c-0.5,0-0.8,0.1-0.9,0.2c-0.1,0.1-0.1,0.5-0.1,1V36z"/>
		<path class="st9" d="M94.6,30.1c0-1.6-0.1-1.7-0.9-1.9l-0.4-0.1c-0.1-0.1-0.2-0.5,0-0.6c0.8,0,1.7,0.1,2.6,0.1
			c0.9,0,1.7,0,2.6-0.1c0.1,0.1,0.1,0.5,0,0.6L98,28.2c-0.8,0.1-0.9,0.3-0.9,1.9v4.1c0,2.1,0.2,4.3,2.9,4.3c2.2,0,2.9-2,2.9-4.4V32
			c0-1.4-0.1-2.8-0.3-3.2c-0.2-0.4-0.5-0.5-1-0.6l-0.5-0.1c-0.1-0.1-0.1-0.5,0-0.6c0.9,0,1.6,0.1,2.4,0.1c0.6,0,1.3,0,2-0.1
			c0.1,0.1,0.1,0.5,0,0.6l-0.3,0.1c-0.5,0.1-0.8,0.2-0.9,0.6c-0.2,0.5-0.3,1.8-0.3,3.2v2c0,1.6-0.2,3.2-1.1,4.2
			c-0.8,0.8-2.1,1.3-3.5,1.3c-1.3,0-2.5-0.2-3.5-1c-0.9-0.8-1.3-2.1-1.3-4V30.1z"/>
		<path class="st9" d="M117.5,27.8c0,0.3,0.1,1.7,0.2,2.7c-0.1,0.2-0.5,0.3-0.7,0.1c-0.5-1.6-1.6-2.5-3.3-2.5c-1.9,0-4,1.7-4,5.2
			c0,3.5,2,5.4,4.1,5.4c2.1,0,3.1-1.5,3.6-2.7c0.1-0.1,0.6-0.1,0.7,0.1c-0.1,1.3-0.4,2.4-0.7,2.8c-0.9,0.3-2.2,0.6-3.6,0.6
			c-1.7,0-3.5-0.4-4.7-1.3c-1.3-1-2.2-2.4-2.2-4.6c0-2.1,0.9-3.7,2.1-4.7c1.2-1,3-1.6,4.9-1.6C115.6,27.3,116.9,27.8,117.5,27.8z"/>
		<path class="st9" d="M123.2,28.9c0-0.4,0-0.5-0.4-0.5h-1.1c-1.3,0-1.7,0.7-2.2,2c-0.2,0.1-0.5,0.1-0.6-0.2c0.4-1.2,0.5-2.3,0.6-3
			c0.1-0.1,0.2-0.1,0.2-0.1c0.1,0,0.2,0,0.2,0.1c0.1,0.3,0.1,0.4,1.5,0.4h6.5c1.2,0,1.4,0,1.6-0.4c0.1,0,0.1-0.1,0.2-0.1
			s0.2,0.1,0.3,0.1c-0.2,0.6-0.3,2-0.3,3c-0.1,0.2-0.6,0.2-0.6,0.1c-0.3-1.1-0.5-1.9-1.9-1.9h-1.1c-0.4,0-0.5,0.1-0.5,0.5v7.7
			c0,1.6,0.1,1.8,0.9,1.9l0.7,0.1c0.1,0.1,0.1,0.5,0,0.6c-1.1,0-2-0.1-2.8-0.1c-0.8,0-1.8,0-3,0.1c-0.1-0.1-0.1-0.5,0-0.6l0.8-0.1
			c0.8-0.1,0.9-0.2,0.9-1.9V28.9z"/>
		<path class="st9" d="M143,33.4c0,3.8-2.6,6.1-6.3,6.1c-3.5,0-6.1-2.3-6.1-6c0-3.5,2.6-6.2,6.3-6.2C140.4,27.3,143,29.8,143,33.4z
			 M136.7,28.1c-2.2,0-3.3,2-3.3,5c0,2.1,0.8,5.6,3.6,5.6c2.3,0,3.2-2.2,3.2-5.1C140.1,30.6,138.8,28.1,136.7,28.1z"/>
		<path class="st9" d="M146.1,30.5c0-1.8,0-1.9-0.8-2.1l-0.5-0.1c-0.2-0.1-0.2-0.5,0-0.6c1.3-0.1,2.7-0.2,4.4-0.2
			c1.5,0,2.8,0.2,3.4,0.6c1,0.6,1.5,1.5,1.5,2.6c0,1.6-1.1,2.2-1.9,2.6c-0.2,0.1-0.2,0.2-0.1,0.4c1.2,2.4,1.9,3.7,2.7,4.4
			c0.5,0.4,0.9,0.5,1.2,0.5c0.2,0.1,0.2,0.4,0.1,0.5c-0.3,0.1-0.8,0.2-1.4,0.2c-1.6,0-2.6-0.6-3.4-1.8c-0.6-0.9-1-1.8-1.4-2.7
			c-0.2-0.5-0.5-0.6-0.9-0.6c-0.6,0-0.6,0-0.6,0.4v2.2c0,1.6,0.1,1.7,0.9,1.9l0.5,0.1c0.1,0.1,0.1,0.5,0,0.6c-0.9,0-1.7-0.1-2.6-0.1
			c-0.9,0-1.6,0-2.6,0.1c-0.1-0.1-0.1-0.5,0-0.6l0.5-0.1c0.8-0.1,0.9-0.3,0.9-1.9V30.5z M148.5,32.7c0,0.6,0.1,0.7,1.1,0.7
			c0.6,0,1-0.2,1.3-0.5c0.3-0.3,0.6-0.9,0.6-1.9c0-1.6-0.9-2.6-2.3-2.6c-0.7,0-0.8,0.1-0.8,0.9V32.7z"/>
	</g>
</g>
</svg>
